<svg id='like-card' xmlns="http://www.w3.org/2000/svg"  viewBox="0 0 100 125" x="0px" y="0px">

<path d="M36.35,97.45l0.14-.13,0.12-.13a2.29,2.29,0,0,1,.11-0.26l0-3.25c0-.93,0-1.79,0-2.34,0-.29,0-0.5,0-0.6-0.08-6.53-.08-13.16-0.08-19.57,0-5.35,0-12.41.08-19.57h0c0-.51,0-3.72.08-5.9l0.09-3.88H8.71a8.27,8.27,0,0,0-8,4.85c-0.14.29-.25,0.57-0.35,0.81l-0.11.25L0,48.43v43l0.5,0.88c0.08,0.13.16,0.3,0.25,0.48a10.43,10.43,0,0,0,1.29,2,7.69,7.69,0,0,0,6,2.67H21.67l11.22,0h3.3ZM29.08,49.51c0,0.61,0,1.15,0,1.53,0,0.14,0,.3,0,0.48h0V51.6h0C29,58.77,29,65.82,29,71.17c0,6.14,0,12.49.07,18.77-5.29,0-10.62,0-15.8,0H8l-0.24,0c-0.06-.09-0.15-0.25-0.23-0.41V50l0-.11c0.15-.32.22-0.47,1.08-0.47H29.08v0.12Z"/><path d="M40.67,94.67a16.67,16.67,0,0,1-9.17-2.6l-1.78-1.13,0-2.11c0.07-10,.1-20.84.1-34.22q0-4.52,0-9V44.1l1-1.09L32,41.48A47.79,47.79,0,0,0,35.34,37c1.88-3,3.7-6.2,5.46-9.26,0.74-1.28,1.5-2.61,2.26-3.92a1.67,1.67,0,0,0,.23-1c-0.09-2.13-.13-4.28-0.17-6.35,0-1.22,0-2.49-.08-3.73a9,9,0,0,1,5.13-8.55A14.63,14.63,0,0,1,61,3.74a9.8,9.8,0,0,1,5.52,5.84L67.45,12c0.84,2.2,1.7,4.47,2.49,6.75a23.31,23.31,0,0,1,.52,12.33c-0.27,1.38-.5,2.76-0.74,4.19h2.22c5.12,0,10.42,0,15.64,0a16,16,0,0,1,5.17.83A10.6,10.6,0,0,1,99.61,44c0,0.1.07,0.26,0.13,0.42l0.1,0.31L100,45.31v4.54l-0.4.53a14.07,14.07,0,0,1-2,4.59,13.71,13.71,0,0,1,.51,3,13.26,13.26,0,0,1-2.37,7.88,12,12,0,0,1,.45,2.5,14,14,0,0,1-2.34,8.54,15.83,15.83,0,0,1,.27,4.72,13.38,13.38,0,0,1-9.51,12,23.42,23.42,0,0,1-7.41,1H67.52c-8.77,0-17.83,0-26.74,0H40.67Zm-3.34-8.13a9.64,9.64,0,0,0,3.41.55c8.93-.05,18,0,26.79,0h9.66a16.28,16.28,0,0,0,5.05-.61,5.81,5.81,0,0,0,4.3-5.37,7.16,7.16,0,0,0-.3-3.13A4.74,4.74,0,0,1,87,73.52a6.87,6.87,0,0,0,1.62-4.67A9.17,9.17,0,0,0,88.14,67,4.9,4.9,0,0,1,89,62.3a6.19,6.19,0,0,0,1.55-4.07,8.22,8.22,0,0,0-.29-1.44c-0.11-.43-0.23-0.91-0.33-1.43a4.56,4.56,0,0,1,1-4.08A6.55,6.55,0,0,0,92.36,48V48l0-.2V46.46c-0.05-.17-0.1-0.35-0.15-0.55h0c-0.47-1.84-1.29-2.36-2-2.62a8.6,8.6,0,0,0-2.71-.4c-5.18,0-10.46,0-15.57,0H66.22a4.24,4.24,0,0,1-4.54-5.36c0.14-.85.28-1.7,0.42-2.55,0.28-1.74.57-3.54,0.92-5.33a15.8,15.8,0,0,0-.25-8.4c-0.74-2.17-1.59-4.38-2.4-6.51l-0.94-2.47a2.3,2.3,0,0,0-1.36-1.52,7,7,0,0,0-6.38.15,1.53,1.53,0,0,0-1.07,1.62c0,1.27.06,2.55,0.08,3.78,0,2,.08,4.14.17,6.19a9.31,9.31,0,0,1-1.25,5.14c-0.75,1.29-1.51,2.61-2.24,3.88-1.79,3.12-3.65,6.35-5.59,9.48a54.19,54.19,0,0,1-3.84,5.23l-0.55.68q0,3.86,0,7.72C37.41,67,37.39,77.19,37.33,86.54Zm55.72-8.47h0ZM94.91,67h0Z"/>
</svg>