<svg xmlns="http://www.w3.org/2000/svg" xmlns:xlink="http://www.w3.org/1999/xlink" width="20" height="20"   viewBox="0 0 20 20">
  <defs>
    <style>
      .cls-1 {
        fill-rule: evenodd;
        filter: url(#filter);
      }
    </style>
    <filter id="filter" x="1466" y="4743" width="20" height="20" filterUnits="userSpaceOnUse">
      <feFlood result="flood" flood-color="#ccc"/>
      <feComposite result="composite" operator="in" in2="SourceGraphic"/>
      <feBlend result="blend" in2="SourceGraphic"/>
    </filter>
  </defs>
  <path id="Forma_1" data-name="Forma 1" class="cls-1" d="M1481.38,4748.38a0.762,0.762,0,0,1-.76-0.77v-1.53a0.762,0.762,0,0,1,.76-0.77h1.54a0.764,0.764,0,0,1,.77.77v1.53a0.764,0.764,0,0,1-.77.77h-1.54Zm-5.38,1.69a2.924,2.924,0,0,0-1.52.43,1.559,1.559,0,0,1,.44-0.07,1.485,1.485,0,1,1-1.49,1.49,1.559,1.559,0,0,1,.07-0.44,2.9,2.9,0,0,0-.43,1.52A2.93,2.93,0,1,0,1476,4750.07Zm0-1.69a4.615,4.615,0,1,1-4.62,4.62,4.622,4.622,0,0,1,4.62-4.62m0-1.54a6.155,6.155,0,1,0,6.15,6.16A6.167,6.167,0,0,0,1476,4746.84Zm6.25-3.84h-12.5a3.751,3.751,0,0,0-3.75,3.75v12.5a3.751,3.751,0,0,0,3.75,3.75h12.5a3.751,3.751,0,0,0,3.75-3.75v-12.5A3.751,3.751,0,0,0,1482.25,4743Zm2.21,6.92h-5.03a4.566,4.566,0,0,1,1.19,3.08,4.62,4.62,0,0,1-9.24,0,4.566,4.566,0,0,1,1.19-3.08h-5.03v-3.17a2.211,2.211,0,0,1,2.21-2.21h12.5a2.211,2.211,0,0,1,2.21,2.21v3.17Z" transform="translate(-1466 -4743)"/>
</svg>
