<?xml version="1.0" encoding="UTF-8"?>
<!DOCTYPE svg PUBLIC "-//W3C//DTD SVG 1.1//EN" "http://www.w3.org/Graphics/SVG/1.1/DTD/svg11.dtd">
<!-- Creator: CorelDRAW 2018 (64-Bit) -->
<svg id="like" xmlns="http://www.w3.org/2000/svg" xml:space="preserve" version="1.1" style="shape-rendering:geometricPrecision; text-rendering:geometricPrecision; image-rendering:optimizeQuality; fill-rule:evenodd; clip-rule:evenodd"
viewBox="0 0 4.85 4.3"
 xmlns:xlink="http://www.w3.org/1999/xlink">
 <defs>
  <style type="text/css">
   <![CDATA[
    .fil0 {fill:black}
   ]]>
  </style>
 </defs>
 <g id="Layer_x0020_1">
  <metadata id="CorelCorpID_0Corel-Layer"/>
  <g id="like">
   <path class="fil0" d="M3.45 0c-0.4,0 -0.77,0.16 -1.03,0.44 -0.53,-0.57 -1.45,-0.6 -2.01,-0.04 -0.55,0.55 -0.55,1.43 -0,1.98l1.84 1.85c0.09,0.09 0.23,0.09 0.32,0l1.86 -1.85c0.27,-0.27 0.41,-0.62 0.41,-0.99 -0,-0.77 -0.63,-1.4 -1.4,-1.4zm0.67 2.06l-1.7 1.69 -1.69 -1.69c-0.37,-0.37 -0.37,-0.96 0,-1.33 0.43,-0.43 1.18,-0.35 1.49,0.21 0.09,0.16 0.32,0.16 0.4,-0 0.16,-0.3 0.47,-0.48 0.82,-0.48 0.52,0 0.94,0.42 0.94,0.94 0,0.25 -0.1,0.49 -0.28,0.67z"/>
  </g>
 </g>
</svg>
