<!-- 
 <svg id="like"  xmlns="http://www.w3.org/2000/svg" xmlns:xlink="http://www.w3.org/1999/xlink"
	 viewBox="0 0 437.775 437.774" 
	 xml:space="preserve">

	<path  d="M316.722,29.761c66.852,0,121.053,54.202,121.053,121.041c0,110.478-218.893,257.212-218.893,257.212S0,266.569,0,150.801
		C0,67.584,54.202,29.761,121.041,29.761c40.262,0,75.827,19.745,97.841,49.976C240.899,49.506,276.47,29.761,316.722,29.761z"/>


</svg>  -->

<!-- <svg id="like" xmlns="http://www.w3.org/2000/svg" xmlns:xlink="http://www.w3.org/1999/xlink"
	 viewBox="0 0 512 512" xml:space="preserve">

		<path d="M376,30c-27.783,0-53.255,8.804-75.707,26.168c-21.525,16.647-35.856,37.85-44.293,53.268
			c-8.437-15.419-22.768-36.621-44.293-53.268C189.255,38.804,163.783,30,136,30C58.468,30,0,93.417,0,177.514
			c0,90.854,72.943,153.015,183.369,247.118c18.752,15.981,40.007,34.095,62.099,53.414C248.38,480.596,252.12,482,256,482
			s7.62-1.404,10.532-3.953c22.094-19.322,43.348-37.435,62.111-53.425C439.057,330.529,512,268.368,512,177.514
			C512,93.417,453.532,30,376,30z"/>

</svg> -->

<svg xmlns="http://www.w3.org/2000/svg" id="like" viewBox="0 0 21.6 19.1" xml:space="preserve">
<path class="gst0" d="M10.8 3.7c5.5-6.8 12.6 1.4 8.7 5.7l-8.8 8.8L2 9.4C-1.5 5 5.3-3.2 10.8 3.7z"></path>
</svg> 
