<?xml version="1.0" encoding="UTF-8"?>
<!DOCTYPE svg PUBLIC "-//W3C//DTD SVG 1.1//EN" "http://www.w3.org/Graphics/SVG/1.1/DTD/svg11.dtd">
<!-- Creator: CorelDRAW 2018 (64-Bit) -->
<svg xmlns="http://www.w3.org/2000/svg" xml:space="preserve" width="7.588mm" height="5.8152mm" version="1.1" style="shape-rendering:geometricPrecision; text-rendering:geometricPrecision; image-rendering:optimizeQuality; fill-rule:evenodd; clip-rule:evenodd"
viewBox="0 0 5.91 4.53"
 xmlns:xlink="http://www.w3.org/1999/xlink">
 <defs>
  <style type="text/css">
   <![CDATA[
    .fil0 {fill:#FEFEFE;fill-rule:nonzero}
   ]]>
  </style>
 </defs>
 <g id="Layer_x0020_1">
  <metadata id="CorelCorpID_0Corel-Layer"/>
  <path class="fil0" d="M5.91 0.29l0 4.24 -5.91 0 0 -4.53 5.91 0 0 0.29zm-0.58 3.65l0 -3.36 -4.74 0 0 3.36 4.74 0z"/>
  <path class="fil0" d="M5.78 0.54l-2.67 2.03c-0.11,0.08 -0.26,0.08 -0.37,-0.01l-2.63 -2.04c-0.13,-0.1 -0.15,-0.28 -0.05,-0.41 0.06,-0.07 0.14,-0.11 0.23,-0.11l0 -0 5.33 0c0.16,0 0.29,0.13 0.29,0.29 0,0.1 -0.05,0.19 -0.13,0.24zm-2.85 1.44l1.82 -1.39 -3.61 0 1.79 1.39z"/>
 </g>
</svg>
