<?xml version="1.0" encoding="UTF-8"?>
<!DOCTYPE svg PUBLIC "-//W3C//DTD SVG 1.1//EN" "http://www.w3.org/Graphics/SVG/1.1/DTD/svg11.dtd">
<!-- Creator: CorelDRAW 2018 (64-Bit) -->
<svg id="reset" xmlns="http://www.w3.org/2000/svg" xml:space="preserve" version="1.1" style="shape-rendering:geometricPrecision; text-rendering:geometricPrecision; image-rendering:optimizeQuality; fill-rule:evenodd; clip-rule:evenodd"
viewBox="0 0 7.4 8.23"
 xmlns:xlink="http://www.w3.org/1999/xlink">
 <defs>
  <style type="text/css">
   <![CDATA[
    .fil0 {fill:black}
   ]]>
  </style>
 </defs>
 <g id="Layer_x0020_1">
  <metadata id="CorelCorpID_0Corel-Layer"/>
  <path id="reset" class="fil0" d="M2.5 2.15c0.2,0 0.36,0.16 0.36,0.36 0,0.2 -0.16,0.36 -0.36,0.36l-2.12 0 -0.03 0 -0.06 0 -0.01 0c-0.02,-0 -0.04,-0.01 -0.06,-0.02l0 0 -0.04 -0.02 -0.02 -0.01 0 0c-0.1,-0.07 -0.17,-0.18 -0.17,-0.3 0,-0 0,-0.01 0,-0.01l0 0 0 -2.15c0,-0.2 0.16,-0.36 0.36,-0.36l0 0c0.2,0 0.36,0.16 0.36,0.36l0 1.12c0.73,-0.71 1.72,-1.12 2.75,-1.12 2.17,0 3.94,1.76 3.94,3.94 0,2.17 -1.76,3.94 -3.94,3.94 -1.41,0 -2.71,-0.75 -3.41,-1.97 -0.03,-0.05 -0.04,-0.11 -0.04,-0.17 0,-0.2 0.16,-0.36 0.36,-0.36 0.12,0 0.24,0.06 0.3,0.17 0.57,1 1.64,1.61 2.79,1.61 1.78,0 3.22,-1.44 3.22,-3.22 0,-1.78 -1.44,-3.22 -3.22,-3.22 -0.91,0 -1.79,0.39 -2.4,1.07l1.44 -0 0 0z"/>
 </g>
</svg>
