<?xml version="1.0" encoding="UTF-8"?>
<!DOCTYPE svg PUBLIC "-//W3C//DTD SVG 1.1//EN" "http://www.w3.org/Graphics/SVG/1.1/DTD/svg11.dtd">
<!-- Creator: CorelDRAW 2018 (64-Bit) -->
<svg id="search" xmlns="http://www.w3.org/2000/svg" xml:space="preserve"  version="1.1" style="shape-rendering:geometricPrecision; text-rendering:geometricPrecision; image-rendering:optimizeQuality; fill-rule:evenodd; clip-rule:evenodd"
viewBox="0 0 3.6 3.6"
 xmlns:xlink="http://www.w3.org/1999/xlink">
 <defs>
  <style type="text/css">
   <![CDATA[
    .fil0 {fill:black}
   ]]>
  </style>
 </defs>
 <g id="search">
  <metadata id="CorelCorpID_0Corel-Layer"/>
  <polygon class="fil0" points="2.32,2.6 3.32,3.6 3.6,3.32 2.6,2.32 "/>
  <path class="fil0" d="M2.64 0.45c0.3,0.3 0.45,0.7 0.45,1.09l-0 0c0,0.4 -0.15,0.79 -0.45,1.09l0 0c-0.3,0.3 -0.7,0.45 -1.09,0.45 -0.4,0 -0.79,-0.15 -1.09,-0.45 -0.3,-0.3 -0.45,-0.7 -0.45,-1.09 0,-0.4 0.15,-0.79 0.45,-1.09 0.3,-0.3 0.7,-0.45 1.09,-0.45l0 0c0.4,0 0.79,0.15 1.09,0.45zm0.06 1.09l-0 0c0,-0.29 -0.11,-0.59 -0.34,-0.81 -0.23,-0.23 -0.52,-0.34 -0.81,-0.34l0 0c-0.29,0 -0.59,0.11 -0.81,0.34 -0.22,0.22 -0.34,0.52 -0.34,0.81 0,0.29 0.11,0.59 0.34,0.81 0.22,0.22 0.52,0.34 0.81,0.34 0.29,0 0.59,-0.11 0.81,-0.34 0.23,-0.22 0.34,-0.52 0.34,-0.81z"/>
 </g>
</svg>
