<?xml version="1.0" encoding="UTF-8"?>
<!DOCTYPE svg PUBLIC "-//W3C//DTD SVG 1.1//EN" "http://www.w3.org/Graphics/SVG/1.1/DTD/svg11.dtd">
<!-- Creator: CorelDRAW 2018 (64-Bit) -->
<svg id="user" xmlns="http://www.w3.org/2000/svg" xml:space="preserve"  version="1.1" style="shape-rendering:geometricPrecision; text-rendering:geometricPrecision; image-rendering:optimizeQuality; fill-rule:evenodd; clip-rule:evenodd"
viewBox="0 0 4.99 5.15"
 xmlns:xlink="http://www.w3.org/1999/xlink">
 <defs>
  <style type="text/css">
   <![CDATA[
    .fil0 {fill:#2B2A29;fill-rule:nonzero}
   ]]>
  </style>
 </defs>
 <g id="Layer_x0020_1">
  <metadata id="CorelCorpID_0Corel-Layer"/>
  <path id="user" class="fil0" d="M4.26 3.32c0.49,0.49 0.73,1.13 0.73,1.76l-0 0c0,0.02 -0,0.05 -0,0.07l-0.52 0c0,-0.02 0,-0.05 0,-0.07l-0 0c0,-0.51 -0.19,-1.01 -0.58,-1.4 -0.39,-0.39 -0.89,-0.58 -1.4,-0.58 -0.51,0 -1.01,0.19 -1.4,0.58 -0.39,0.39 -0.58,0.89 -0.58,1.4 0,0.02 0,0.05 0,0.07l-0.52 0c-0,-0.02 -0,-0.05 -0,-0.07 0,-0.64 0.24,-1.28 0.73,-1.76 0.49,-0.49 1.13,-0.73 1.76,-0.73 0.64,0 1.28,0.24 1.76,0.73z"/>
  <path id="user" class="fil0" d="M3.05 1.86c0.15,-0.15 0.23,-0.35 0.23,-0.55 0,-0.2 -0.08,-0.4 -0.23,-0.55 -0.15,-0.15 -0.35,-0.23 -0.55,-0.23 -0.2,0 -0.4,0.08 -0.55,0.23 -0.15,0.15 -0.23,0.35 -0.23,0.55 0,0.2 0.08,0.4 0.23,0.55 0.15,0.15 0.35,0.23 0.55,0.23 0.2,0 0.4,-0.08 0.55,-0.23zm0.75 -0.55c0,0.33 -0.13,0.67 -0.38,0.92 -0.25,0.25 -0.59,0.38 -0.92,0.38 -0.33,0 -0.67,-0.13 -0.92,-0.38 -0.25,-0.25 -0.38,-0.59 -0.38,-0.92 0,-0.33 0.13,-0.67 0.38,-0.92 0.25,-0.25 0.59,-0.38 0.92,-0.38 0.33,0 0.67,0.13 0.92,0.38 0.25,0.25 0.38,0.59 0.38,0.92z"/>
 </g>
</svg>
