<!-- 
<svg id="view-card"  xmlns="http://www.w3.org/2000/svg" xmlns:xlink="http://www.w3.org/1999/xlink" 
	 viewBox="0 0 511.999 511.999"  xml:space="preserve">

		<path id="view-card" d="M508.745,246.041c-4.574-6.257-113.557-153.206-252.748-153.206S7.818,239.784,3.249,246.035
			c-4.332,5.936-4.332,13.987,0,19.923c4.569,6.257,113.557,153.206,252.748,153.206s248.174-146.95,252.748-153.201
			C513.083,260.028,513.083,251.971,508.745,246.041z M255.997,385.406c-102.529,0-191.33-97.533-217.617-129.418
			c26.253-31.913,114.868-129.395,217.617-129.395c102.524,0,191.319,97.516,217.617,129.418
			C447.361,287.923,358.7 46,385.406,255.997,385.406z"/>

		<path id="view-card" d="M255.997,154.725c-55.842,0-101.275,45.433-101.275,101.275s45.433,101.275,101.275,101.275
			s101.275-45.433,101.275-101.275S311.839,154.725,255.997,154.725z M255.997,323.516c-37.23,0-67.516-30.287-67.516-67.516
			s30.287-67.516,67.516-67.516s67.516,30.287,67.516,67.516S293.227,323.516,255.997,323.516z"/>

</svg> -->
<svg viewBox="0 0 512 394.59" id="view-card" xmlns="http://www.w3.org/2000/svg"><path d="M508.74 188.84C504.17 182.58 395.19 35.63 256 35.63S7.82 182.58 3.25 188.83a16.91 16.91 0 0 0 0 19.93C7.82 215 116.81 362 256 362s248.17-147 252.74-153.24a16.87 16.87 0 0 0 0-19.92zM256 328.2c-102.53 0-191.33-97.53-217.62-129.41C64.63 166.87 153.25 69.39 256 69.39c102.52 0 191.32 97.52 217.61 129.42C447.36 230.72 358.75 328.2 256 328.2z"></path><path d="M256 97.52A101.28 101.28 0 1 0 357.27 198.8 101.4 101.4 0 0 0 256 97.52zm0 168.79a67.52 67.52 0 1 1 67.51-67.51A67.59 67.59 0 0 1 256 266.31z"></path><path d="M425.2-.003l28.094 28.094-366.5 366.5L58.7 366.498z"></path></svg>
